<?xml version="1.0" encoding="UTF-8"?>
<svg width="20px" height="20px" viewBox="0 0 20 20" version="1.1" xmlns="http://www.w3.org/2000/svg" xmlns:xlink="http://www.w3.org/1999/xlink">
    <!-- Generator: Sketch 46.2 (44496) - http://www.bohemiancoding.com/sketch -->
    <title>ic_search</title>
    <desc>Created with Sketch.</desc>
    <defs></defs>
    <g id="Symbols" stroke="none" stroke-width="1" fill="none" fill-rule="evenodd">
        <g id="Icon-Search" fill-rule="nonzero" fill="#FFFFFF">
            <g id="ic_search">
                <path d="M19.2071068,17.7928932 L13.1966991,11.7824856 C12.8061748,11.3919613 12.1730099,11.3919613 11.7824856,11.7824856 C11.3919613,12.1730099 11.3919613,12.8061748 11.7824856,13.1966991 L17.7928932,19.2071068 C18.1834175,19.5976311 18.8165825,19.5976311 19.2071068,19.2071068 C19.5976311,18.8165825 19.5976311,18.1834175 19.2071068,17.7928932 Z" id="shape"></path>
                <path d="M7.5,13 C10.5375661,13 13,10.5375661 13,7.5 C13,4.46243388 10.5375661,2 7.5,2 C4.46243388,2 2,4.46243388 2,7.5 C2,10.5375661 4.46243388,13 7.5,13 Z M7.5,15 C3.35786438,15 0,11.6421356 0,7.5 C0,3.35786438 3.35786438,2.77555756e-17 7.5,2.77555756e-17 C11.6421356,2.77555756e-17 15,3.35786438 15,7.5 C15,11.6421356 11.6421356,15 7.5,15 Z" id="shape"></path>
            </g>
        </g>
    </g>
</svg>